Coordinates
version=1
nRows=6
nColumns=34
inDegrees=yes

Units are S.I. units (second, meters, Newtons, ...)
If the header above contains a line with 'inDegrees', this indicates whether rotational values are in degrees (yes) or radians (no).

endheader
time	pelvis_tilt	pelvis_list	pelvis_rotation	pelvis_tx	pelvis_ty	pelvis_tz	hip_flexion_r	hip_adduction_r	hip_rotation_r	knee_angle_r	ankle_angle_r	subtalar_angle_r	mtp_angle_r	hip_flexion_l	hip_adduction_l	hip_rotation_l	knee_angle_l	ankle_angle_l	subtalar_angle_l	mtp_angle_l	lumbar_extension	lumbar_bending	lumbar_rotation	arm_flex_r	arm_add_r	arm_rot_r	elbow_flex_r	pro_sup_r	arm_flex_l	arm_add_l	arm_rot_l	elbow_flex_l	pro_sup_l
      1.26666670	     -2.06385149	      0.85911117	     -4.28343064	      1.66772753	      0.97846556	     -0.01602170	     -1.86492448	     -5.74362585	     -1.04625766	      0.00000000	      4.54845126	    -15.90066350	      0.00000000	      0.17737927	     -3.34036757	      6.40714693	      1.08246723	      2.83718337	     -9.30974668	      0.00000000	     -7.11996889	      1.29094724	      0.13106844	     10.65841348	     -9.02705113	     40.02610290	     81.22414834	     89.53587389	      9.80140035	     -6.30628733	     31.22646527	     64.75727995	     85.73757125
      1.28333330	     -2.06527480	      0.80470822	     -4.26130796	      1.66797346	      0.97862675	     -0.01558321	     -1.89592084	     -5.63588194	     -0.94095528	      0.00000000	      4.54262656	    -15.85451321	      0.00000000	      0.20363580	     -3.43892164	      6.35429069	      1.16266112	      2.78536288	     -9.30218722	      0.00000000	     -7.08822375	      1.18090826	      0.11790186	     10.59608597	     -8.99761852	     40.00633302	     81.23765824	     89.50635764	      9.72235030	     -6.35415206	     31.25721059	     64.71350682	     85.72673039
      1.30000000	     -2.06568443	      0.81182607	     -4.26212399	      1.66797897	      0.97841827	     -0.01570071	     -1.89590503	     -5.63216538	     -0.94030831	      0.00000000	      4.54262220	    -15.85420851	      0.00000000	      0.20261788	     -3.44170432	      6.35394179	      1.16368509	      2.78490118	     -9.30194531	      0.00000000	     -7.08809436	      1.18134876	      0.11772309	     10.59549263	     -8.99733118	     40.00602919	     81.23769264	     89.50599435	      9.72213030	     -6.35449491	     31.25745152	     64.71320444	     85.72659765
      1.31666670	     -2.06888433	      0.81845773	     -4.26409610	      1.66794306	      0.97800385	     -0.01584182	     -1.89920428	     -5.62850710	     -0.93905791	      0.00000000	      4.54240652	    -15.85359680	      0.00000000	      0.20194647	     -3.44672821	      6.35362596	      1.16472774	      2.78393343	     -9.30110326	      0.00000000	     -7.08765055	      1.18112453	      0.11764691	     10.59458939	     -8.99648359	     40.00547330	     81.23794010	     89.50531070	      9.72136254	     -6.35535848	     31.25793156	     64.71249367	     85.72634769
      1.33333330	     -2.07021708	      0.81859029	     -4.26580460	      1.66795017	      0.97740833	     -0.01587058	     -1.90233871	     -5.62902431	     -0.93826817	      0.00051688	      4.54210098	    -15.85319870	      0.00000000	      0.20236598	     -3.45107947	      6.35370132	      1.16478366	      2.78324332	     -9.30020261	      0.00000000	     -7.08733505	      1.18036892	      0.11755436	     10.59423073	     -8.99590013	     40.00494671	     81.23817104	     89.50480571	      9.72076956	     -6.35600862	     31.25828545	     64.71188598	     85.72616432
      1.35000000	     -2.08024989	      0.81062409	     -4.27288136	      1.66819371	      0.97700473	     -0.01572745	     -1.90986713	     -5.63539368	     -0.93501484	      0.00000000	      4.54071335	    -15.85240559	      0.00000000	      0.20166969	     -3.47475534	      6.35529918	      1.16450856	      2.78091264	     -9.29515029	      0.00000000	     -7.08290676	      1.17474780	      0.11586151	     10.59437961	     -8.99397404	     40.00090589	     81.23987896	     89.50203640	      9.71855909	     -6.35857667	     31.26018415	     64.70906784	     85.72518690
